# xmcd
#
# Track frame offsets:
#	182
#	22147
#	39285
#	61030
#	72677
#	86590
#	105895
#	130287
#	143747
#	157445
#	171787
#	187932
#	207087
#
# Disc length: 2828 seconds
#
# Revision: 1
# Processed by: cddbd v1.4PL0 Copyright (c) Steve Scherf et al.
# Submitted via: audiograbber 1.82.02
#
DISCID=b20b0a0d
DTITLE=Pavel Brumer, Tomas Linka, Cadillac - Zivot je jizda
DYEAR=1996
DGENRE=Country
TTITLE0=Do tmy se koukej
TTITLE1=Tak nak uz to bracho bejva
TTITLE2=Kouzelnej kout
TTITLE3=Valcik pri svicce
TTITLE4=Vendo koncim, jdu
TTITLE5=Podivnej navrat
TTITLE6=P. Garret and B. The Kid
TTITLE7=Tulackej sen
TTITLE8=Hadej
TTITLE9=Posledni volba
TTITLE10=Figurina
TTITLE11=Zivot je jizda
TTITLE12=Dotocna
EXTD=
EXTT0=
EXTT1=
EXTT2=
EXTT3=
EXTT4=
EXTT5=
EXTT6=
EXTT7=
EXTT8=
EXTT9=
EXTT10=
EXTT11=
EXTT12=
PLAYORDER=
